<?xml version="1.0" standalone="no"?>
<!DOCTYPE svg PUBLIC "-//W3C//DTD SVG 20010904//EN"
 "http://www.w3.org/TR/2001/REC-SVG-20010904/DTD/svg10.dtd">
<svg version="1.0" xmlns="http://www.w3.org/2000/svg"
 width="1280.000000pt" height="720.000000pt" viewBox="0 0 1280.000000 720.000000"
 preserveAspectRatio="xMidYMid meet">

<g transform="translate(0.000000,720.000000) scale(0.100000,-0.100000)"
fill="#000000" stroke="none">
<path d="M6475 6806 c-41 -19 -385 -359 -1865 -1840 -1019 -1019 -1824 -1832
-1835 -1853 -27 -52 -28 -182 -1 -233 25 -48 391 -415 446 -448 39 -23 56 -27
125 -27 69 0 86 4 125 27 68 40 3652 3631 3681 3688 18 35 23 61 23 115 0 107
-23 141 -253 368 -166 164 -203 196 -245 210 -71 24 -141 22 -201 -7z"/>
<path d="M7108 4951 c-51 -17 -115 -71 -290 -248 -200 -201 -222 -236 -222
-339 1 -122 -56 -60 1186 -1301 1106 -1104 1134 -1132 1187 -1147 72 -21 119
-20 184 4 46 17 80 47 258 227 235 237 245 253 237 371 -3 37 -13 83 -22 102
-24 46 -2248 2274 -2305 2307 -33 20 -59 27 -115 29 -39 2 -83 0 -98 -5z"/>
<path d="M5880 3719 c-19 -6 -48 -20 -65 -32 -51 -35 -1760 -1749 -1790 -1795
-22 -34 -29 -57 -33 -115 -7 -121 5 -141 246 -379 177 -176 214 -207 256 -222
63 -20 119 -20 182 0 44 15 105 73 635 600 l585 584 53 0 c29 0 62 -5 74 -11
12 -6 249 -237 527 -514 278 -277 520 -511 539 -520 53 -27 139 -31 202 -10
48 16 76 40 252 214 110 108 210 215 224 239 17 29 27 63 31 107 10 128 61 68
-857 988 -505 506 -841 836 -866 849 -46 24 -143 32 -195 17z"/>
</g>
</svg>
